<svg width="716" height="363" viewBox="0 0 716 363" fill="none" xmlns="http://www.w3.org/2000/svg">
<path d="M282.583 154.864C287.094 136.891 295.966 120.316 308.408 106.615C335.93 78.4562 371.565 76.969 384.536 76.4257C414.224 75.1879 439.907 84.8769 460.326 97.3266C479.858 109.242 499.895 126.331 508.666 136.127L593.042 53.0403L550.428 0L500.623 58.3924C486.782 46.014 464.099 31.6763 442.642 23.4745C423.355 16.4631 403.017 12.8039 382.503 12.6545C300.418 12.6545 231.899 70.2009 215.688 146.831L136.346 125.459L0 180.707L136.373 237.506L215.59 215.59C231.57 292.505 300.241 350.345 382.494 350.345C403.008 350.196 423.346 346.537 442.633 339.525C464.082 331.368 486.765 316.986 500.614 304.608L550.428 363L593.042 309.96L508.702 226.873C499.93 236.669 479.911 253.758 460.362 265.673C439.943 278.141 414.259 287.821 384.571 286.574C371.601 286.031 335.983 284.544 308.444 256.385C296.002 242.684 287.13 226.109 282.618 208.136H715.29L716 207.993V154.873H282.583V154.864Z" fill="#155D60"/>
</svg>
